<?xml version="1.0" encoding="UTF-8" standalone="no"?>
<!DOCTYPE svg PUBLIC "-//W3C//DTD SVG 1.1//EN" "http://www.w3.org/Graphics/SVG/1.1/DTD/svg11.dtd">
<svg xmlns="http://www.w3.org/2000/svg" xmlns:xlink="http://www.w3.org/1999/xlink" version="1.1" width="844.1058pt" height="597.4916pt" viewBox="0 0 844.1058 597.4916">
<g enable-background="new">
<g id="Layer-1" data-name="Katman 1">
<path transform="matrix(1,0,0,-1,1,596.4916)" d="M .108 595.3836 L 841.9978 595.3836 L 841.9978 .108 L .108 .108 Z " fill="#ffffff" fill-rule="evenodd"/>
<path transform="matrix(1,0,0,-1,1,596.4916)" stroke-width=".216" stroke-linecap="butt" stroke-miterlimit="22.925585" stroke-linejoin="miter" fill="none" stroke="#000000" d="M .108 595.3836 L 841.9978 595.3836 L 841.9978 .108 L .108 .108 Z "/>
<path transform="matrix(1,0,0,-1,1,596.4916)" d="M 488.4727 244.131 L 519.1951 244.131 L 519.1951 236.7181 L 507.4089 236.7181 L 507.4089 196.9651 L 500.2588 196.9651 L 500.2588 236.7181 L 488.4727 236.7181 Z M 421.0529 439.8131 C 445.5845 439.8131 467.7956 429.8689 483.8715 413.7925 C 499.9482 397.7164 509.8924 375.5055 509.8924 350.9736 C 509.8924 326.442 499.9482 304.2309 483.8715 288.1551 C 420.1665 224.4487 339.9338 287.2774 381.8769 337.0487 C 387.843 344.1271 398.9273 349.7564 411.9775 349.7564 L 441.9043 349.7876 C 457.8012 349.7876 464.864 350.1377 470.3672 355.6406 C 469.118 340.4957 463.964 333.1604 445.2503 333.1604 L 412.808 333.1278 C 393.734 333.6066 382.513 314.0694 387.8303 297.3745 C 402.425 251.549 503.2284 275.4638 503.2284 350.9736 C 503.2284 373.6664 494.03 394.2111 479.16 409.0808 C 464.2903 423.951 443.7454 433.1486 421.0529 433.1486 C 398.3604 433.1486 377.8155 423.951 362.946 409.0808 C 348.0758 394.2111 338.8782 373.6664 338.8782 350.9736 C 338.8782 330.5786 348.446 302.3674 360.8045 285.6881 C 342.5306 302.5655 332.2134 326.0778 332.2134 350.9736 C 332.2134 375.5055 342.1576 397.7164 358.2343 413.7925 C 374.3101 429.8689 396.5219 439.8131 421.0529 439.8131 Z M 589.6157 206.5649 L 589.6157 198.3648 C 586.8388 197.2607 583.865 196.7034 580.7058 196.7034 C 577.338 196.7034 574.1895 197.3265 571.2593 198.5723 C 568.3289 199.8303 565.7703 201.5133 563.5732 203.6568 C 561.3752 205.7882 559.6373 208.292 558.3691 211.1681 C 557.1003 214.0319 556.4662 217.1151 556.4662 220.4062 C 556.4662 223.6748 557.1003 226.7694 558.3691 229.6777 C 559.6373 232.5966 561.3752 235.1225 563.5732 237.2547 C 565.7703 239.3861 568.3289 241.0807 571.2593 242.3163 C 574.1895 243.5519 577.338 244.175 580.7058 244.175 C 583.865 244.175 586.8388 243.6284 589.6157 242.5354 L 589.6157 234.2477 C 588.8285 234.7393 587.9869 235.1659 587.1121 235.5267 C 585.1117 236.3581 582.9687 236.7731 580.7058 236.7731 C 578.4202 236.7731 576.2775 236.3581 574.2768 235.5267 C 572.2648 234.6959 570.5161 233.5371 569.018 232.05 C 567.5199 230.5627 566.3503 228.8248 565.4971 226.8241 C 564.6447 224.8345 564.2181 222.6915 564.2181 220.4062 C 564.2181 218.1209 564.6447 215.9782 565.4971 213.9883 C 566.3503 211.9878 567.5199 210.2491 569.018 208.7626 C 570.5161 207.2755 572.2648 206.1164 574.2768 205.2748 C 576.2775 204.4327 578.4202 204.006 580.7058 204.006 C 582.9687 204.006 585.1117 204.4327 587.1121 205.2859 C 587.9869 205.6465 588.8285 206.0731 589.6157 206.5649 Z M 628.2207 196.7034 L 621.0048 196.7034 L 621.0048 212.1188 L 604.5395 212.1188 L 604.5395 196.7034 L 597.3233 196.7034 L 597.3233 244.131 L 604.5395 244.131 L 604.5395 219.4007 L 621.0048 219.4007 L 621.0048 244.131 L 628.2207 244.131 Z M 526.9578 243.8691 L 559.7337 243.8691 C 557.373 241.8089 555.3269 239.3983 553.6757 236.7181 L 534.1731 236.7181 L 534.1731 219.2689 L 549.0896 219.2689 C 549.1791 216.8014 549.5562 214.4075 550.1874 212.1188 L 534.1731 212.1188 L 534.1731 203.8535 L 553.8393 203.8535 C 555.5339 201.164 557.6287 198.7534 560.0401 196.7034 L 526.9578 196.7034 Z " fill="#0098a6" fill-rule="evenodd"/>
<path transform="matrix(1,0,0,-1,1,596.4916)" d="M 213.8851 243.8691 L 247.8359 243.8691 C 245.4293 241.8205 243.3419 239.4091 241.6589 236.7181 L 221.1009 236.7181 L 221.1009 219.2689 L 237.0101 219.2689 C 237.0997 216.8005 237.4787 214.4061 238.1162 212.1188 L 221.1009 212.1188 L 221.1009 196.7034 L 213.8851 196.7034 Z M 397.554 379.7405 L 453.9019 379.7717 C 469.7994 379.7717 476.8617 380.1209 482.3649 385.6238 C 481.1156 370.4791 475.9617 363.1442 457.2485 363.1442 L 398.3839 363.1116 C 376.5404 363.1116 366.2342 347.3756 363.1459 327.5379 C 358.1135 345.8809 358.6873 356.6313 367.4529 367.0319 C 373.4184 374.1106 384.5038 379.7405 397.554 379.7405 Z M 291.8506 220.4062 C 291.8506 217.1151 291.2159 214.0319 289.9477 211.1681 C 288.6795 208.292 286.9407 205.7882 284.7436 203.6568 C 282.5459 201.5133 279.9763 199.8303 277.0577 198.5723 C 274.1275 197.3265 270.9896 196.7034 267.6328 196.7034 C 264.2658 196.7034 261.1165 197.3265 258.1872 198.5723 C 255.2567 199.8303 252.6982 201.5133 250.501 203.6568 C 248.3033 205.7882 246.5651 208.292 245.2963 211.1681 C 244.0281 214.0319 243.394 217.1151 243.394 220.4062 C 243.394 223.6748 244.0281 226.7694 245.2963 229.6777 C 246.5651 232.5966 248.3033 235.1225 250.501 237.2547 C 252.6982 239.3861 255.2567 241.0807 258.1872 242.3163 C 261.1165 243.5519 264.2658 244.175 267.6328 244.175 C 270.9896 244.175 274.1275 243.5519 277.0577 242.3163 C 279.9763 241.0807 282.5459 239.3861 284.7436 237.2547 C 286.9407 235.1225 288.6795 232.5966 289.9477 229.6777 C 291.2159 226.7694 291.8506 223.6748 291.8506 220.4062 Z M 251.1459 220.4062 C 251.1459 218.1209 251.5725 215.9782 252.4249 213.9883 C 253.2781 211.9878 254.4477 210.2491 255.9458 208.7626 C 257.4431 207.2755 259.1926 206.1164 261.2041 205.2748 C 263.2054 204.4327 265.3483 204.006 267.6328 204.006 C 269.8957 204.006 272.0395 204.4327 274.0399 205.2748 C 276.052 206.1164 277.8009 207.2755 279.2772 208.7626 C 280.7637 210.2491 281.9336 211.9878 282.7865 213.9883 C 283.6389 215.9782 284.0655 218.1209 284.0655 220.4062 C 284.0655 222.6915 283.6389 224.8345 282.7865 226.8241 C 281.9336 228.8248 280.7637 230.5627 279.2772 232.05 C 277.8009 233.5371 276.052 234.6959 274.0399 235.5267 C 272.0395 236.3581 269.8957 236.7731 267.6328 236.7731 C 265.3483 236.7731 263.2054 236.3581 261.2041 235.5267 C 259.1926 234.6959 257.4431 233.5371 255.9458 232.05 C 254.4477 230.5627 253.2781 228.8248 252.4249 226.8241 C 251.5725 224.8345 251.1459 222.6915 251.1459 220.4062 Z M 306.7194 213.9225 L 307.266 213.9225 C 310.4694 213.9225 313.2026 215.049 315.466 217.3119 C 317.7289 219.5756 318.8548 222.3193 318.8548 225.5227 C 318.8548 228.7154 317.7289 231.4491 315.466 233.712 C 313.2026 235.9749 310.4694 237.1122 307.266 237.1122 L 306.7194 237.1122 Z M 318.7896 210.7414 L 325.4584 196.6374 L 317.7839 196.6374 L 312.7 207.5596 C 310.9944 207.0456 309.1791 206.7939 307.266 206.7939 L 306.7194 206.7939 L 306.7194 196.7034 L 299.5685 196.7034 L 299.5685 244.1968 L 307.2767 244.1968 C 312.4259 244.1968 316.8326 242.3713 320.4734 238.7194 C 324.1137 235.0675 325.9397 230.6616 325.9397 225.5119 C 325.9397 220.3404 324.1253 215.9345 320.506 212.2719 C 319.9595 211.7254 319.3795 211.2114 318.7896 210.7414 Z M 330.0508 244.131 L 360.7733 244.131 L 360.7733 236.7181 L 348.9871 236.7181 L 348.9871 196.9651 L 341.8367 196.9651 L 341.8367 236.7181 L 330.0508 236.7181 Z M 368.5357 244.131 L 375.6861 244.131 L 375.6861 196.7034 L 368.5357 196.7034 Z M 431.8279 220.4062 C 431.8279 217.1151 431.1938 214.0319 429.9256 211.1681 C 428.6577 208.292 426.9189 205.7882 424.7209 203.6568 C 422.5238 201.5133 419.9542 199.8303 417.0356 198.5723 C 414.1054 197.3265 410.9675 196.7034 407.6107 196.7034 C 404.244 196.7034 401.0947 197.3265 398.1643 198.5723 C 395.2341 199.8303 392.6761 201.5133 390.4784 203.6568 C 388.2813 205.7882 386.5425 208.292 385.2743 211.1681 C 384.006 214.0319 383.3722 217.1151 383.3722 220.4062 C 383.3722 223.6748 384.006 226.7694 385.2743 229.6777 C 386.5425 232.5966 388.2813 235.1225 390.4784 237.2547 C 392.6761 239.3861 395.2341 241.0807 398.1643 242.3163 C 401.0947 243.5519 404.244 244.175 407.6107 244.175 C 410.9675 244.175 414.1054 243.5519 417.0356 242.3163 C 419.9542 241.0807 422.5238 239.3861 424.7209 237.2547 C 426.9189 235.1225 428.6577 232.5966 429.9256 229.6777 C 431.1938 226.7694 431.8279 223.6748 431.8279 220.4062 Z M 391.1233 220.4062 C 391.1233 218.1209 391.5499 215.9782 392.4028 213.9883 C 393.2552 211.9878 394.4251 210.2491 395.9232 208.7626 C 397.421 207.2755 399.1708 206.1164 401.182 205.2748 C 403.1827 204.4327 405.3263 204.006 407.6107 204.006 C 409.8739 204.006 412.0166 204.4327 414.0179 205.2748 C 416.0293 206.1164 417.7789 207.2755 419.2546 208.7626 C 420.7416 210.2491 421.9115 211.9878 422.7644 213.9883 C 423.6168 215.9782 424.0434 218.1209 424.0434 220.4062 C 424.0434 222.6915 423.6168 224.8345 422.7644 226.8241 C 421.9115 228.8248 420.7416 230.5627 419.2546 232.05 C 417.7789 233.5371 416.0293 234.6959 414.0179 235.5267 C 412.0166 236.3581 409.8739 236.7731 407.6107 236.7731 C 405.3263 236.7731 403.1827 236.3581 401.182 235.5267 C 399.1708 234.6959 397.421 233.5371 395.9232 232.05 C 394.4251 230.5627 393.2552 228.8248 392.4028 226.8241 C 391.5499 224.8345 391.1233 222.6915 391.1233 220.4062 Z M 446.6968 213.9225 L 447.2439 213.9225 C 450.4476 213.9225 453.1805 215.049 455.4434 217.3119 C 457.7068 219.5756 458.8328 222.3193 458.8328 225.5227 C 458.8328 228.7154 457.7068 231.4491 455.4434 233.712 C 453.1805 235.9749 450.4476 237.1122 447.2439 237.1122 L 446.6968 237.1122 Z M 458.7676 210.7414 L 465.4363 196.6374 L 457.7613 196.6374 L 452.6779 207.5596 C 450.9717 207.0456 449.157 206.7939 447.2439 206.7939 L 446.6968 206.7939 L 446.6968 196.7034 L 439.5464 196.7034 L 439.5464 244.1968 L 447.2549 244.1968 C 452.4038 244.1968 456.8097 242.3713 460.4508 238.7194 C 464.0916 235.0675 465.918 230.6616 465.918 225.5119 C 465.918 220.3404 464.1024 215.9345 460.4839 212.2719 C 459.9374 211.7254 459.3574 211.2114 458.7676 210.7414 Z M 473.6582 244.131 L 480.8083 244.131 L 480.8083 196.7034 L 473.6582 196.7034 Z " fill="#484b52" fill-rule="evenodd"/>
</g>
</g>
</svg>
